<svg xmlns="http://www.w3.org/2000/svg" xmlns:xlink="http://www.w3.org/1999/xlink" width="649.468" height="199.49"><defs><path id="a" d="M-175.106-399.596h1000v1000h-1000z"/></defs><clipPath id="b"><use xlink:href="#a" overflow="visible"/></clipPath><path clip-path="url(#b)" fill="#ffffff" d="M148.305 71.017v.014c-17.353 0-32.361 6.843-42.271 19.588h-.477c-7.089-13.222-19.248-19.588-35.183-19.588-13.577 0-27.154 6.256-36.846 18.061h-.341V71.044H21.614c-8.615.436-15.472 7.566-15.472 16.29v103.422h10.81c8.52 0 15.499-6.516 16.235-14.845V131.95c0-23.147 12.269-36.369 28.326-36.369 16.058 0 23.501 12.405 23.501 33.779v61.396h27.045V131.95c0-23.147 12.282-36.369 27.508-36.369 16.181 0 23.146 12.405 23.146 33.779v61.396h10.728c9.011 0 16.304-7.293 16.304-16.303v-51.95c0-35.183-15.473-51.486-41.44-51.486m119.888.027c-32.32 0-56.611 24.169-56.611 59.733 0 36.274 25.572 59.979 59.392 59.979 22.015 0 37.923-8.67 47.887-20.679l-25.668-9.665c-5.439 3.682-12.35 6.161-20.815 6.161-17.094 0-29.635-9.991-33.124-26.499h84.61c.341-2.086.695-6.502.695-10.564v-.014c0-33.82-22.083-58.452-56.366-58.452m-28.476 47.533c3.83-15.104 15.335-23.364 29.867-23.364 15.226 0 24.877 9.296 28.244 23.364h-58.111zm122.847-108.52c-9.011 0-16.304 7.293-16.304 16.303v164.396h11.138c9.01 0 16.303-7.293 16.303-16.303V10.057h-11.137zm56.093 60.987c-8.614.436-15.472 7.552-15.472 16.276v103.437h11.137c9.012 0 16.305-7.294 16.305-16.304V71.044h-11.97z"/><path clip-path="url(#b)" fill="#ffffff" d="M419.53 10.053c-9.011 0-16.318 7.294-16.318 16.305v23.176h11.138c9.012 0 16.306-7.293 16.306-16.305V10.053H419.53z"/><path clip-path="url(#b)" fill="#ffffff" d="M487.029 98.458v50c0 12.214 3.829 16.658 11.505 16.658h17.693v25.641h-23.269c-10.278-.014-18.607-3.284-24.387-9.868-5.78-6.612-8.983-16.55-8.983-29.923V26.36c0-9.01 7.306-16.303 16.303-16.303h11.138v60.987h29.198v11.137c0 8.724-6.843 15.84-15.458 16.276h-13.74zm145.398-27.413c-8.125.409-14.695 6.774-15.404 14.817v.845c-.013-.013-.026-.041-.041-.054-8.71-10.306-21.605-15.636-36.341-15.636-31.966 0-56.039 25.219-56.039 60.333 0 35.919 24.073 59.406 56.271 59.406 16.045 0 28.49-6.284 36.969-17.434h.354v17.434h9.147c9.011 0 16.303-7.293 16.303-16.303V71.045h-11.219zm-50.42 95.529c-19.643 0-33.356-14.531-33.356-35.115 0-22.314 14.872-36.259 33.479-36.259 19.057 0 32.892 15.689 32.892 36.259-.001 21.047-14.994 35.115-33.015 35.115"/></svg>